<svg width="10" height="16" viewBox="0 0 10 16" fill="none" xmlns="http://www.w3.org/2000/svg">
<path d="M5.26074 15.952H3.41099V13.9325C2.10994 13.8081 0.972939 13.4687 -1.97981e-05 12.9143V10.4876C1.26709 11.3248 2.68693 11.7434 4.2595 11.7434C4.98356 11.7434 5.52095 11.6585 5.87167 11.4888C6.2337 11.3078 6.41472 11.0136 6.41472 10.6064C6.41472 10.3122 6.29593 10.0577 6.05834 9.8427C5.83207 9.62775 5.53227 9.45804 5.15892 9.3336C4.78558 9.19783 4.37264 9.06773 3.9201 8.94328C3.46756 8.80752 3.01502 8.65479 2.56248 8.48509C2.10994 8.30407 1.697 8.09477 1.32366 7.85719C0.950312 7.60829 0.644848 7.26889 0.407265 6.83898C0.180996 6.40906 0.067861 5.91127 0.067861 5.3456C0.067861 4.38395 0.373325 3.62595 0.984252 3.07159C1.59518 2.50592 2.40409 2.1552 3.41099 2.01944V-1.92862e-05H5.26074V2.03641C6.45997 2.14954 7.46122 2.43238 8.26447 2.88492V5.26075C7.25757 4.53668 6.03572 4.18597 4.59891 4.20859C3.30917 4.23122 2.6643 4.59891 2.6643 5.31166C2.6643 5.58318 2.77744 5.82076 3.00371 6.02441C3.24129 6.21673 3.54675 6.37512 3.9201 6.49957C4.30476 6.62402 4.72335 6.74847 5.17589 6.87292C5.62843 6.99736 6.07531 7.1501 6.51654 7.33111C6.96908 7.51213 7.38202 7.72708 7.75537 7.97598C8.14002 8.21356 8.44549 8.54731 8.67176 8.97722C8.90934 9.40713 9.02813 9.91058 9.02813 10.4876C9.02813 11.5963 8.68307 12.4278 7.99295 12.9822C7.31414 13.5366 6.40341 13.859 5.26074 13.9495V15.952Z" fill="white"/>
</svg>
